<svg xmlns="http://www.w3.org/2000/svg" width="32" height="32" id="file"><path fill="none" stroke="#000" stroke-linecap="round" stroke-linejoin="round" d="M26.496 7.504v21.5c0 .83-.669 1.5-1.5 1.5h-18c-.83 0-1.5-.67-1.5-1.5v-26c0-.831.67-1.5 1.5-1.5h13.5z"></path><path d="M5 24.004v5c0 1.108.892 2 2 2h18c1.108 0 2-.892 2-2v-5H5zm4.453.994a.5.5 0 0 1 .05 0 .5.5 0 0 1 .036 0h1.965a.5.5 0 1 1 0 1h-2c-.286 0-.5.214-.5.5 0 .286.214.5.5.5a.5.5 0 0 1 .035 0h.965a.5.5 0 0 1 .107.01 1.505 1.505 0 0 1 1.393 1.49c0 .787-.623 1.433-1.397 1.488a.5.5 0 0 1-.103.012h-2a.5.5 0 1 1 0-1h2c.286 0 .5-.214.5-.5 0-.286-.214-.5-.5-.5h-1a.5.5 0 0 1-.094-.01 1.504 1.504 0 0 1-1.406-1.49c0-.784.617-1.428 1.387-1.488a.5.5 0 0 1 .062-.012zm6.05 0c1.376 0 2.5 1.125 2.5 2.5 0 .508-.154.981-.417 1.377l.266.266a.5.5 0 1 1-.707.707l-.268-.268a2.477 2.477 0 0 1-1.373.418 2.508 2.508 0 0 1-2.5-2.5c0-1.375 1.125-2.5 2.5-2.5zm3.993 0a.5.5 0 0 1 .508.508V29H21.5a.5.5 0 1 1 0 1h-1.988a.5.5 0 0 1-.168-.027.5.5 0 0 1-.028-.01.5.5 0 0 1-.076-.04.5.5 0 0 1-.035-.023.5.5 0 0 1-.012-.01.5.5 0 0 1-.033-.027.5.5 0 0 1-.006-.01.5.5 0 0 1-.011-.013.5.5 0 0 1-.055-.067.5.5 0 0 1-.02-.03.5.5 0 0 1-.027-.057.5.5 0 0 1-.014-.036.5.5 0 0 1-.004-.013.5.5 0 0 1-.011-.045.5.5 0 0 1-.008-.135v-3.951a.5.5 0 0 1 .492-.508zm-3.992.996c-.834 0-1.5.666-1.5 1.5a1.492 1.492 0 0 0 2.142 1.352.5.5 0 0 1 .358-.852.5.5 0 0 1 .35.147 1.495 1.495 0 0 0-1.35-2.147z"></path><path stroke="#000" stroke-linecap="round" stroke-linejoin="round" d="M26.496 7.504h-4.5c-.83 0-1.5-.67-1.5-1.5v-4.5"></path><path style="line-height:normal;text-indent:0;text-align:start;text-decoration-line:none;text-decoration-style:solid;text-decoration-color:#000;text-transform:none;block-progression:tb;isolation:auto;mix-blend-mode:normal" d="M10.5 1029.362v1.5H9v1h1.5v1.5h1v-1.5H13v-1h-1.5v-1.5h-1zm3 3c-.417 0-.775.193-1.041.46-.266.265-.459.624-.459 1.04v1c0 .397.177.739.424 1-.247.262-.424.603-.424 1v1c0 .397.177.739.424 1-.247.262-.424.603-.424 1v1c0 .417.193.775.459 1.041.266.266.624.46 1.041.46h5c.417 0 .775-.194 1.041-.46.266-.266.459-.624.459-1.04v-1c0-.398-.177-.74-.424-1 .247-.262.424-.604.424-1v-1c0-.398-.177-.74-.424-1 .247-.262.424-.604.424-1v-1c0-.417-.193-.776-.459-1.042s-.624-.459-1.041-.459h-5zm0 1h5c.083 0 .225.057.334.166.109.11.166.25.166.334v1a.545.545 0 0 1-.166.334.544.544 0 0 1-.334.166h-5a.544.544 0 0 1-.334-.166.544.544 0 0 1-.166-.334v-1c0-.083.057-.225.166-.334a.544.544 0 0 1 .334-.166zm0 3h5c.083 0 .225.057.334.166.109.11.166.25.166.334v1a.545.545 0 0 1-.166.334.544.544 0 0 1-.334.166h-5a.544.544 0 0 1-.334-.166.544.544 0 0 1-.166-.334v-1c0-.083.057-.225.166-.334a.544.544 0 0 1 .334-.166zm0 3h5c.083 0 .225.057.334.166.109.11.166.25.166.334v1a.545.545 0 0 1-.166.334.544.544 0 0 1-.334.166h-5a.544.544 0 0 1-.334-.166.544.544 0 0 1-.166-.334v-1c0-.083.057-.225.166-.334a.544.544 0 0 1 .334-.166z" color="#000" font-family="sans-serif" font-weight="400" overflow="visible" transform="translate(0 -1020.362)"></path></svg>