<svg xmlns="http://www.w3.org/2000/svg" enable-background="new 0 0 24 24" viewBox="0 0 24 24" id="wix"><path d="M3.677 16.456c.534-.27.786-.478 1.11-1.73.288-1.117 1.093-4.399 1.168-4.632.178-.554.416-.512.577 0 .074.234.879 3.516 1.167 4.632.323 1.253.576 1.461 1.11 1.73.405.205 1.218.147 1.218.147l2.459-9.211c-.916-.114-1.869.332-2.074 1.31h-.002l-1.284 4.929L8.057 9.597C7.769 8.408 7.277 7.794 6.241 7.794c-1.026 0-1.525.602-1.816 1.804l-1.067 4.034L2.073 8.702C1.865 7.71.895 7.281 0 7.393l2.459 9.211C2.459 16.603 3.271 16.661 3.677 16.456L3.677 16.456zM14.104 16.475c.522-.264.643-.518.647-1.663V9.228h-.001V8.896c0 0-.153.236-.505.429-.226.126-.442.21-.674.321-.567.27-.494.518-.494 1.308v5.649C13.078 16.603 13.699 16.68 14.104 16.475L14.104 16.475zM24 7.423c0 0-1.317-.222-1.969.366-.498.449-.915 1.098-2.032 2.691-.017.027-.234.392-.49 0-1.099-1.568-1.531-2.24-2.033-2.691-.652-.588-1.968-.366-1.968-.366l3.12 4.596-3.112 4.582c0 0 1.371.172 2.024-.416.431-.389.659-.757 1.969-2.627.255-.391.47-.028.49 0 1.102 1.575 1.472 2.157 1.993 2.627.651.588 1.999.416 1.999.416l-3.112-4.582h.001L24 7.423 24 7.423z"></path><path fill="#212121" d="M6.241 7.794c-1.026 0-1.525.602-1.816 1.804L3.789 12h1.68c.239-.957.448-1.792.485-1.906.087-.272.189-.4.288-.4.104 0 .206.139.289.4C6.567 10.207 6.777 11.043 7.015 12h1.678L8.057 9.597C7.769 8.408 7.277 7.794 6.241 7.794L6.241 7.794zM.278 7.375C.185 7.375.092 7.381 0 7.393l0 0L1.23 12h1.702L2.073 8.702C1.887 7.812 1.086 7.375.278 7.375L.278 7.375zM12.205 7.375c-.822 0-1.609.449-1.794 1.327h-.002L9.55 12h1.705l1.23-4.607C12.392 7.381 12.298 7.375 12.205 7.375L12.205 7.375zM14.751 8.896c0 0-.153.236-.505.429-.226.126-.442.21-.674.321-.567.27-.494.518-.494 1.308V12h1.674V9.228h-.001V8.896L14.751 8.896zM23.427 7.382c-.437 0-1.024.072-1.396.407-.498.449-.915 1.098-2.032 2.691-.011.018-.108.18-.246.18-.072 0-.156-.045-.244-.18-1.099-1.568-1.531-2.24-2.033-2.691-.372-.335-.959-.407-1.396-.407-.329 0-.573.041-.573.041L18.615 12h2.278L24 7.423C24 7.423 23.756 7.382 23.427 7.382L23.427 7.382z"></path><path fill="#F6C712" d="M14.752,7.382v0.001c0,0-0.655-0.018-1.021,0.172c-0.475,0.247-0.652,0.664-0.652,1.815c0,0,0.241-0.23,0.599-0.359C14.83,8.596,14.752,7.866,14.752,7.382L14.752,7.382z"></path><path fill="#D6AD10" d="M14.615,8.292h-1.441c-0.067,0.263-0.096,0.61-0.096,1.078c0,0,0.241-0.23,0.599-0.359C14.208,8.82,14.478,8.562,14.615,8.292L14.615,8.292z"></path></svg>